<svg width="140" height="108" viewBox="0 0 140 108" fill="none" xmlns="http://www.w3.org/2000/svg">
<g filter="url(#filter0_d_3144_17606)">
<g clip-path="url(#clip0_3144_17606)">
<rect x="28" y="20" width="60" height="60" rx="30" fill="white"/>
<path fill-rule="evenodd" clip-rule="evenodd" d="M59.0069 40.5804C58.0918 39.981 56.9084 39.981 55.9933 40.5804L55.1185 41.1534L47.0913 46.371C46.7441 46.5968 46.6455 47.0613 46.8713 47.4086C47.097 47.7559 47.5615 47.8545 47.9088 47.6287L48.7876 47.0575C48.7628 47.2431 48.7501 47.4314 48.7501 47.6215V56C48.7501 58.3473 50.6529 60.25 53.0001 60.25H62.0001C64.3473 60.25 66.2501 58.3473 66.2501 56V47.6215C66.2501 47.4314 66.2374 47.2431 66.2126 47.0575L67.0913 47.6287C67.4386 47.8545 67.9032 47.7559 68.1289 47.4086C68.3547 47.0613 68.2561 46.5968 67.9088 46.371L59.8816 41.1534L59.0069 40.5804ZM61.328 51.8255C61.7005 52.0066 61.8557 52.4554 61.6746 52.8279C61.4758 53.2369 60.9755 53.8262 60.2987 54.3101C59.6037 54.8071 58.644 55.25 57.5001 55.25C55.1834 55.25 53.9479 53.7984 53.3707 52.9079C53.1454 52.5603 53.2446 52.0959 53.5922 51.8706C53.9398 51.6453 54.4042 51.7445 54.6295 52.0921C55.0893 52.8016 55.9279 53.75 57.5001 53.75C58.2486 53.75 58.9093 53.4596 59.4263 53.0899C59.9616 52.7071 60.2651 52.2964 60.3256 52.1721C60.5067 51.7996 60.9555 51.6444 61.328 51.8255Z" fill="url(#paint0_linear_3144_17606)"/>
</g>
</g>
<defs>
<filter id="filter0_d_3144_17606" x="0" y="0" width="140" height="140" filterUnits="userSpaceOnUse" color-interpolation-filters="sRGB">
<feFlood flood-opacity="0" result="BackgroundImageFix"/>
<feColorMatrix in="SourceAlpha" type="matrix" values="0 0 0 0 0 0 0 0 0 0 0 0 0 0 0 0 0 0 127 0" result="hardAlpha"/>
<feOffset dx="12" dy="20"/>
<feGaussianBlur stdDeviation="20"/>
<feComposite in2="hardAlpha" operator="out"/>
<feColorMatrix type="matrix" values="0 0 0 0 0.490196 0 0 0 0 0.270588 0 0 0 0 0.960784 0 0 0 0.1 0"/>
<feBlend mode="normal" in2="BackgroundImageFix" result="effect1_dropShadow_3144_17606"/>
<feBlend mode="normal" in="SourceGraphic" in2="effect1_dropShadow_3144_17606" result="shape"/>
</filter>
<linearGradient id="paint0_linear_3144_17606" x1="19.5043" y1="34.2083" x2="20.8218" y2="72.5717" gradientUnits="userSpaceOnUse">
<stop stop-color="#0D743B"/>
<stop offset="1" stop-color="#FCE166"/>
</linearGradient>
<clipPath id="clip0_3144_17606">
<rect x="28" y="20" width="60" height="60" rx="30" fill="white"/>
</clipPath>
</defs>
</svg>
