<svg xmlns="http://www.w3.org/2000/svg" width="20" height="20" viewBox="0 0 20 20" fill="none">
  <path d="M13.4787 12.3566C13.6296 12.0462 13.5003 11.6722 13.1898 11.5213C12.8794 11.3704 12.5054 11.4997 12.3545 11.8101C12.3041 11.9137 12.0512 12.256 11.6051 12.575C11.1742 12.883 10.6237 13.125 9.99991 13.125C8.68973 13.125 7.99094 12.3347 7.60771 11.7434C7.41997 11.4538 7.03297 11.3712 6.74331 11.5589C6.45365 11.7466 6.37103 12.1337 6.55877 12.4233C7.03974 13.1654 8.06935 14.375 9.99991 14.375C10.9531 14.375 11.7529 14.0059 12.3321 13.5918C12.8961 13.1885 13.313 12.6975 13.4787 12.3566Z" fill="white"/>
  <path fill-rule="evenodd" clip-rule="evenodd" d="M11.2556 2.15038L11.9845 2.62786L18.6739 6.97591C18.9633 7.16403 19.0454 7.55115 18.8573 7.84056C18.6692 8.12997 18.282 8.21209 17.9926 8.02397L17.2603 7.54796C17.281 7.70262 17.2916 7.85957 17.2916 8.01795V15.0001C17.2916 16.9561 15.7059 18.5417 13.7499 18.5417H6.24991C4.2939 18.5417 2.70824 16.9561 2.70824 15.0001V8.01795C2.70824 7.85957 2.71883 7.70262 2.73952 7.54796L2.00719 8.02397C1.71778 8.21209 1.33067 8.12997 1.14255 7.84056C0.954432 7.55115 1.03655 7.16403 1.32596 6.97591L8.01526 2.62787L8.74425 2.15038C9.50684 1.65088 10.493 1.65088 11.2556 2.15038ZM10.5676 3.19771L11.3014 3.67469L15.0056 6.10091C15.6521 6.52435 16.0416 7.24512 16.0416 8.01795V15.0001C16.0416 16.2657 15.0156 17.2917 13.7499 17.2917H6.24991C4.98426 17.2917 3.95824 16.2657 3.95824 15.0001V8.01795C3.95824 7.24512 4.34776 6.52435 4.99425 6.10091L8.69837 3.6747L9.43221 3.19771C9.77742 2.97332 10.2224 2.97332 10.5676 3.19771Z" fill="white"/>
</svg>