<svg width="34" height="34" viewBox="0 0 34 34" fill="none" xmlns="http://www.w3.org/2000/svg">
<rect width="34" height="34" rx="17" fill="white"/>
<rect x="0.5" y="0.5" width="33" height="33" rx="16.5" stroke="black" stroke-opacity="0.1"/>
<path d="M10.5904 23.25C10.1695 23.25 9.81315 23.1042 9.52148 22.8125C9.22982 22.5208 9.08398 22.1645 9.08398 21.7435V12.2565C9.08398 11.8355 9.22982 11.4792 9.52148 11.1875C9.81315 10.8958 10.1695 10.75 10.5904 10.75H23.4109C23.8318 10.75 24.1882 10.8958 24.4798 11.1875C24.7715 11.4792 24.9173 11.8355 24.9173 12.2565V21.7435C24.9173 22.1645 24.7715 22.5208 24.4798 22.8125C24.1882 23.1042 23.8318 23.25 23.4109 23.25H10.5904ZM17.0007 17.3269C17.0701 17.3269 17.139 17.3165 17.2073 17.2956C17.2758 17.2748 17.342 17.2462 17.4061 17.21L23.3661 13.3942C23.4611 13.3354 23.5284 13.2593 23.5679 13.1658C23.6075 13.0724 23.6193 12.9738 23.6032 12.8702C23.5925 12.6778 23.4984 12.5349 23.3211 12.4415C23.1438 12.348 22.965 12.3563 22.7844 12.4663L17.0007 16.1667L11.2169 12.4663C11.0363 12.3563 10.8588 12.3474 10.6842 12.4398C10.5095 12.5323 10.4141 12.6731 10.3982 12.8621C10.382 12.9743 10.3938 13.0785 10.4334 13.1746C10.4729 13.2708 10.5402 13.344 10.6352 13.3942L16.5952 17.21C16.6593 17.2462 16.7255 17.2748 16.794 17.2956C16.8623 17.3165 16.9312 17.3269 17.0007 17.3269Z" fill="#1BB15F"/>
</svg>
