<svg xmlns="http://www.w3.org/2000/svg" width="20" height="20" viewBox="0 0 20 20" fill="none">
  <path fill-rule="evenodd" clip-rule="evenodd" d="M5.41683 1.45837C3.2307 1.45837 1.4585 3.23058 1.4585 5.41671C1.4585 7.60283 3.2307 9.37504 5.41683 9.37504C7.60296 9.37504 9.37516 7.60283 9.37516 5.41671C9.37516 3.23058 7.60296 1.45837 5.41683 1.45837ZM2.7085 5.41671C2.7085 3.92094 3.92106 2.70837 5.41683 2.70837C6.9126 2.70837 8.12516 3.92094 8.12516 5.41671C8.12516 6.91248 6.9126 8.12504 5.41683 8.12504C3.92106 8.12504 2.7085 6.91248 2.7085 5.41671Z" fill="black"/>
  <path fill-rule="evenodd" clip-rule="evenodd" d="M5.41683 10.625C3.2307 10.625 1.4585 12.3972 1.4585 14.5834C1.4585 16.7695 3.2307 18.5417 5.41683 18.5417C7.60296 18.5417 9.37516 16.7695 9.37516 14.5834C9.37516 12.3972 7.60296 10.625 5.41683 10.625ZM2.7085 14.5834C2.7085 13.0876 3.92106 11.875 5.41683 11.875C6.9126 11.875 8.12516 13.0876 8.12516 14.5834C8.12516 16.0791 6.9126 17.2917 5.41683 17.2917C3.92106 17.2917 2.7085 16.0791 2.7085 14.5834Z" fill="black"/>
  <path fill-rule="evenodd" clip-rule="evenodd" d="M10.6252 5.41671C10.6252 3.23058 12.3974 1.45837 14.5835 1.45837C16.7696 1.45837 18.5418 3.23058 18.5418 5.41671C18.5418 7.60283 16.7696 9.37504 14.5835 9.37504C12.3974 9.37504 10.6252 7.60283 10.6252 5.41671ZM14.5835 2.70837C13.0877 2.70837 11.8752 3.92094 11.8752 5.41671C11.8752 6.91248 13.0877 8.12504 14.5835 8.12504C16.0793 8.12504 17.2918 6.91248 17.2918 5.41671C17.2918 3.92094 16.0793 2.70837 14.5835 2.70837Z" fill="black"/>
  <path fill-rule="evenodd" clip-rule="evenodd" d="M14.5835 10.625C12.3974 10.625 10.6252 12.3972 10.6252 14.5834C10.6252 16.7695 12.3974 18.5417 14.5835 18.5417C16.7696 18.5417 18.5418 16.7695 18.5418 14.5834C18.5418 12.3972 16.7696 10.625 14.5835 10.625ZM11.8752 14.5834C11.8752 13.0876 13.0877 11.875 14.5835 11.875C16.0793 11.875 17.2918 13.0876 17.2918 14.5834C17.2918 16.0791 16.0793 17.2917 14.5835 17.2917C13.0877 17.2917 11.8752 16.0791 11.8752 14.5834Z" fill="black"/>
</svg>