<svg width="20" height="20" viewBox="0 0 20 20" fill="none" xmlns="http://www.w3.org/2000/svg">
<path d="M9.99966 7.5C7.00813 7.5 4.58301 9.92512 4.58301 12.9166C4.58301 15.9082 7.00813 18.3333 9.99966 18.3333C12.9912 18.3333 15.4163 15.9082 15.4163 12.9166C15.4163 9.92512 12.9912 7.5 9.99966 7.5Z" stroke="white" stroke-width="1.25" stroke-linecap="round" stroke-linejoin="round"/>
<path d="M16.6663 1.6665L13.3528 4.67884C12.7558 5.22161 12.4572 5.493 12.1055 5.47111C11.7539 5.44922 11.4913 5.1429 10.9663 4.53025L10.5441 4.03781C10.0866 3.50405 9.85784 3.23716 9.54476 3.19397C9.23159 3.15077 8.93917 3.34575 8.35417 3.73571L3.33301 7.08317M16.6663 1.6665H13.7497M16.6663 1.6665V4.1665" stroke="white" stroke-width="1.25" stroke-linecap="round" stroke-linejoin="round"/>
<path d="M8.69822 15.1386V10.6942M10.0003 10.6942V9.58301M10.0003 16.2497V15.1386M8.69822 12.9163H11.3024M11.3024 12.9163C11.7339 12.9163 12.0836 13.2895 12.0836 13.7497V14.3053C12.0836 14.7655 11.7339 15.1386 11.3024 15.1386H7.91699M11.3024 12.9163C11.7339 12.9163 12.0836 12.5433 12.0836 12.083V11.5275C12.0836 11.0673 11.7339 10.6942 11.3024 10.6942H7.91699" stroke="white" stroke-width="1.25" stroke-linecap="round" stroke-linejoin="round"/>
</svg>
