<svg width="20" height="20" viewBox="0 0 20 20" fill="none" xmlns="http://www.w3.org/2000/svg">
<path fill-rule="evenodd" clip-rule="evenodd" d="M10.0004 6.87506C8.27452 6.87506 6.87541 8.27417 6.87541 10.0001C6.87541 11.726 8.27452 13.1251 10.0004 13.1251C11.7263 13.1251 13.1254 11.726 13.1254 10.0001C13.1254 8.27417 11.7263 6.87506 10.0004 6.87506ZM8.12541 10.0001C8.12541 8.96453 8.96487 8.12506 10.0004 8.12506C11.0359 8.12506 11.8754 8.96453 11.8754 10.0001C11.8754 11.0356 11.0359 11.8751 10.0004 11.8751C8.96487 11.8751 8.12541 11.0356 8.12541 10.0001Z" fill="white"/>
<path fill-rule="evenodd" clip-rule="evenodd" d="M9.43927 1.3584C8.67386 1.3584 7.82818 1.64892 7.43899 2.42532L6.76259 3.73263C6.65152 3.9473 6.42662 4.07869 6.18507 4.07002L4.76101 4.0189C3.85611 3.9089 3.1025 4.55159 2.72254 5.21987L2.71655 5.23066L2.23824 6.11197C1.83218 6.83045 1.79112 7.71596 2.16791 8.3471L2.95713 9.6162C3.0851 9.82199 3.08259 10.0832 2.95068 10.2865L2.18188 11.4712C1.68238 12.2273 1.85856 13.1414 2.24147 13.8148L2.80549 14.7866C2.81511 14.8032 2.82549 14.8193 2.83659 14.8349C3.31647 15.5101 4.04772 15.9842 4.78917 15.9842C4.79664 15.9842 4.80412 15.984 4.81159 15.9838L6.26525 15.9316C6.5068 15.9229 6.73169 16.0543 6.84277 16.269L7.52121 17.5802C7.52702 17.5915 7.53318 17.6025 7.53966 17.6134C7.9095 18.2329 8.69229 18.6432 9.51944 18.6432H10.5617C11.3271 18.6432 12.1728 18.3527 12.562 17.5763L13.2384 16.269C13.3494 16.0543 13.5743 15.9229 13.8159 15.9316L15.24 15.9827C16.1449 16.0927 16.8985 15.45 17.2784 14.7817L17.2844 14.771L17.7627 13.8896C17.976 13.5122 18.0784 13.0914 18.0914 12.7007C18.1041 12.3157 18.0313 11.906 17.8331 11.5739L17.0438 10.3048C16.9159 10.0991 16.9184 9.83785 17.0503 9.63457L17.819 8.44991C18.3186 7.69385 18.1424 6.7797 17.7595 6.10622C17.7546 6.09762 17.7495 6.08914 17.7442 6.08078L17.183 5.19444C17.177 5.18503 17.1708 5.17579 17.1644 5.16672C16.6845 4.49152 15.9533 4.01744 15.2118 4.01744C15.2043 4.01744 15.1969 4.01757 15.1894 4.01784L13.7357 4.07002C13.4942 4.07869 13.2693 3.9473 13.1582 3.73263L12.4798 2.42138C12.4739 2.41014 12.4678 2.39908 12.4613 2.38822C12.0915 1.76872 11.3087 1.3584 10.4815 1.3584H9.43927ZM8.55571 2.98698C8.64867 2.80012 8.92349 2.6084 9.43927 2.6084H10.4815C10.927 2.6084 11.2616 2.83235 11.3802 3.01642L12.048 4.30705C12.3812 4.95107 13.0559 5.34522 13.7806 5.31921L15.2206 5.26753C15.4406 5.27191 15.8205 5.44065 16.1364 5.87817L16.6796 6.73612C16.9305 7.18443 16.9137 7.5533 16.7755 7.76175L16.0017 8.95413C15.606 9.56397 15.5984 10.3476 15.9823 10.965L16.7617 12.2182C16.8035 12.2905 16.8492 12.4435 16.842 12.6593C16.835 12.8709 16.7781 13.0925 16.6728 13.2776L16.6668 13.2884L16.189 14.1689C15.9329 14.6158 15.5812 14.7693 15.3808 14.7405C15.3588 14.7374 15.3366 14.7354 15.3144 14.7346L13.8607 14.6824C13.1361 14.6564 12.4614 15.0506 12.1282 15.6946L11.4497 17.0058L11.4453 17.0146C11.3523 17.2015 11.0775 17.3932 10.5617 17.3932H9.51944C9.07397 17.3932 8.73937 17.1693 8.62073 16.9852L7.95297 15.6946C7.61975 15.0506 6.94506 14.6564 6.22041 14.6824L4.78041 14.7341C4.56194 14.7297 4.18574 14.5633 3.8712 14.1326L3.32685 13.1947C3.07019 12.742 3.08622 12.3693 3.2255 12.1593L3.99925 10.9669C4.39498 10.3571 4.40253 9.57344 4.01862 8.95609L3.23911 7.70261C3.13745 7.52771 3.09747 7.12974 3.32813 6.72405L3.33413 6.71326L3.81201 5.83275C4.06806 5.38581 4.41972 5.23232 4.62017 5.2611C4.64218 5.26426 4.66435 5.26624 4.68657 5.26704L6.14023 5.31921C6.86489 5.34522 7.53958 4.95107 7.87279 4.30705L8.5513 2.99584L8.55571 2.98698Z" fill="white"/>
</svg>
