<svg width="20" height="20" viewBox="0 0 20 20" fill="none" xmlns="http://www.w3.org/2000/svg">
<path d="M2.08301 6.82247C2.16972 5.0727 2.42915 3.98176 3.20521 3.2057C3.98127 2.42964 5.07222 2.17021 6.82198 2.0835M17.9163 6.82247C17.8296 5.0727 17.5702 3.98176 16.7942 3.2057C16.0181 2.42964 14.9271 2.17021 13.1773 2.0835M13.1773 17.9168C14.9271 17.8301 16.0181 17.5707 16.7942 16.7947C17.5702 16.0186 17.8296 14.9276 17.9163 13.1778M6.82197 17.9168C5.07222 17.8301 3.98127 17.5707 3.20521 16.7947C2.42915 16.0186 2.16972 14.9276 2.08301 13.1778" stroke="white" stroke-width="1.25" stroke-linecap="round" stroke-linejoin="round"/>
<path d="M2.08301 10H17.9164" stroke="white" stroke-width="1.25" stroke-linecap="round"/>
<path d="M5 10C5 7.23857 7.23857 5 10 5C10 6.38071 11.1192 7.5 12.5 7.5C13.0629 7.5 13.5824 7.31393 14.0003 6.99994C14.628 7.83561 15 8.87433 15 10M14.3311 12.5C13.4666 13.9945 11.8507 15 10 15C8.14929 15 6.53343 13.9945 5.66891 12.5" stroke="white" stroke-width="1.25" stroke-linecap="round" stroke-linejoin="round"/>
</svg>
