<svg width="20" height="20" viewBox="0 0 20 20" fill="none" xmlns="http://www.w3.org/2000/svg">
<path fill-rule="evenodd" clip-rule="evenodd" d="M5.41634 1.4585C3.23021 1.4585 1.45801 3.2307 1.45801 5.41683C1.45801 7.60296 3.23021 9.37516 5.41634 9.37516C7.60247 9.37516 9.37467 7.60296 9.37467 5.41683C9.37467 3.2307 7.60247 1.4585 5.41634 1.4585ZM2.70801 5.41683C2.70801 3.92106 3.92057 2.7085 5.41634 2.7085C6.91211 2.7085 8.12467 3.92106 8.12467 5.41683C8.12467 6.9126 6.91211 8.12516 5.41634 8.12516C3.92057 8.12516 2.70801 6.9126 2.70801 5.41683Z" fill="white"/>
<path fill-rule="evenodd" clip-rule="evenodd" d="M5.41634 10.6252C3.23021 10.6252 1.45801 12.3974 1.45801 14.5835C1.45801 16.7696 3.23021 18.5418 5.41634 18.5418C7.60247 18.5418 9.37467 16.7696 9.37467 14.5835C9.37467 12.3974 7.60247 10.6252 5.41634 10.6252ZM2.70801 14.5835C2.70801 13.0877 3.92057 11.8752 5.41634 11.8752C6.91211 11.8752 8.12467 13.0877 8.12467 14.5835C8.12467 16.0793 6.91211 17.2918 5.41634 17.2918C3.92057 17.2918 2.70801 16.0793 2.70801 14.5835Z" fill="white"/>
<path fill-rule="evenodd" clip-rule="evenodd" d="M10.6247 5.41683C10.6247 3.2307 12.3969 1.4585 14.583 1.4585C16.7691 1.4585 18.5413 3.2307 18.5413 5.41683C18.5413 7.60296 16.7691 9.37516 14.583 9.37516C12.3969 9.37516 10.6247 7.60296 10.6247 5.41683ZM14.583 2.7085C13.0872 2.7085 11.8747 3.92106 11.8747 5.41683C11.8747 6.9126 13.0872 8.12516 14.583 8.12516C16.0788 8.12516 17.2913 6.9126 17.2913 5.41683C17.2913 3.92106 16.0788 2.7085 14.583 2.7085Z" fill="white"/>
<path fill-rule="evenodd" clip-rule="evenodd" d="M14.583 10.6252C12.3969 10.6252 10.6247 12.3974 10.6247 14.5835C10.6247 16.7696 12.3969 18.5418 14.583 18.5418C16.7691 18.5418 18.5413 16.7696 18.5413 14.5835C18.5413 12.3974 16.7691 10.6252 14.583 10.6252ZM11.8747 14.5835C11.8747 13.0877 13.0872 11.8752 14.583 11.8752C16.0788 11.8752 17.2913 13.0877 17.2913 14.5835C17.2913 16.0793 16.0788 17.2918 14.583 17.2918C13.0872 17.2918 11.8747 16.0793 11.8747 14.5835Z" fill="white"/>
</svg>
