<svg width="20" height="20" viewBox="0 0 20 20" fill="none" xmlns="http://www.w3.org/2000/svg">
<path fill-rule="evenodd" clip-rule="evenodd" d="M4.37381 5.83317C4.37381 4.60091 5.34641 3.5958 6.56583 3.54363C6.82383 4.27077 7.5178 4.7915 8.33339 4.7915H12.5001C13.3156 4.7915 14.0095 4.27082 14.2676 3.54374C15.4858 3.59715 16.4571 4.60173 16.4571 5.83317V10.8332C16.4571 11.1783 16.737 11.4582 17.0821 11.4582C17.4273 11.4582 17.7071 11.1783 17.7071 10.8332V5.83317C17.7071 3.91175 16.1771 2.3477 14.2689 2.29298C14.0119 1.56397 13.317 1.0415 12.5001 1.0415H8.33339C7.51647 1.0415 6.82158 1.56393 6.56458 2.29291C4.65523 2.34633 3.12381 3.91091 3.12381 5.83317V10.0886C3.12381 11.3162 2.86619 12.5302 2.36761 13.652C1.94032 14.6134 2.33698 15.6633 3.1422 16.1625C3.30676 17.7336 4.6354 18.9582 6.25005 18.9582H10.8334C11.1786 18.9582 11.4584 18.6783 11.4584 18.3332C11.4584 17.988 11.1786 17.7082 10.8334 17.7082H6.25005C5.43367 17.7082 4.73914 17.1864 4.48174 16.4582H10.8334C11.1786 16.4582 11.4584 16.1783 11.4584 15.8332C11.4584 15.488 11.1786 15.2082 10.8334 15.2082H4.19127C3.65166 15.2082 3.29072 14.6528 3.50987 14.1597C4.07949 12.878 4.37381 11.4911 4.37381 10.0886V5.83317ZM13.1238 2.9165C13.1238 2.90709 13.124 2.89773 13.1244 2.88842C13.1097 2.55627 12.8358 2.2915 12.5001 2.2915H8.33339C7.98821 2.2915 7.70839 2.57133 7.70839 2.9165C7.70839 3.26168 7.98821 3.5415 8.33339 3.5415H12.5001C12.8358 3.5415 13.1097 3.27673 13.1244 2.94459C13.124 2.93528 13.1238 2.92592 13.1238 2.9165Z" fill="white"/>
<path fill-rule="evenodd" clip-rule="evenodd" d="M18.06 13.1653C17.4505 12.5558 16.4621 12.5558 15.8526 13.1653L13.2087 15.8092C13.0368 15.9811 12.9272 16.2053 12.897 16.4465L12.7157 17.8972C12.6795 18.1862 12.7789 18.4757 12.9849 18.6817C13.1908 18.8877 13.4804 18.987 13.7694 18.9509L15.2201 18.7695C15.4612 18.7394 15.6855 18.6297 15.8573 18.4579L18.5012 15.814C19.1108 15.2044 19.1108 14.2161 18.5012 13.6065L18.06 13.1653ZM16.7365 14.0492C16.8579 13.9278 17.0547 13.9278 17.1761 14.0492L17.6173 14.4904C17.7387 14.6118 17.7387 14.8087 17.6173 14.9301L15.0115 17.5359L14.0048 17.6617L14.1307 16.655L16.7365 14.0492Z" fill="white"/>
<path d="M7.29172 11.4582C7.29172 11.113 7.57154 10.8332 7.91672 10.8332H12.9167C13.2619 10.8332 13.5417 11.113 13.5417 11.4582C13.5417 11.8033 13.2619 12.0832 12.9167 12.0832H7.91672C7.57154 12.0832 7.29172 11.8033 7.29172 11.4582Z" fill="white"/>
<path d="M7.91672 7.9165C7.57154 7.9165 7.29172 8.19633 7.29172 8.5415C7.29172 8.88668 7.57154 9.1665 7.91672 9.1665H10.0001C10.3452 9.1665 10.6251 8.88668 10.6251 8.5415C10.6251 8.19633 10.3452 7.9165 10.0001 7.9165H7.91672Z" fill="white"/>
</svg>
