<svg width="20" height="20" viewBox="0 0 20 20" fill="none" xmlns="http://www.w3.org/2000/svg">
<path fill-rule="evenodd" clip-rule="evenodd" d="M14.375 1.4585C12.3039 1.4585 10.625 3.13743 10.625 5.2085C10.625 7.27956 12.3039 8.9585 14.375 8.9585C16.4461 8.9585 18.125 7.27956 18.125 5.2085C18.125 3.13743 16.4461 1.4585 14.375 1.4585ZM11.875 5.2085C11.875 3.82778 12.9943 2.7085 14.375 2.7085C15.7557 2.7085 16.875 3.82778 16.875 5.2085C16.875 6.58921 15.7557 7.7085 14.375 7.7085C12.9943 7.7085 11.875 6.58921 11.875 5.2085Z" fill="black" fill-opacity="0.4"/>
<path fill-rule="evenodd" clip-rule="evenodd" d="M3.95833 1.66683C2.80774 1.66683 1.875 2.59957 1.875 3.75016V5.62516C1.875 7.35105 3.27411 8.75016 5 8.75016H6.875C8.02559 8.75016 8.95833 7.81742 8.95833 6.66683V3.75016C8.95833 2.59957 8.02559 1.66683 6.875 1.66683H3.95833ZM3.125 3.75016C3.125 3.28993 3.4981 2.91683 3.95833 2.91683H6.875C7.33524 2.91683 7.70833 3.28993 7.70833 3.75016V6.66683C7.70833 7.12707 7.33524 7.50016 6.875 7.50016H5C3.96447 7.50016 3.125 6.6607 3.125 5.62516V3.75016Z" fill="black" fill-opacity="0.4"/>
<path fill-rule="evenodd" clip-rule="evenodd" d="M13.125 10.8335C11.9744 10.8335 11.0417 11.7662 11.0417 12.9168V14.7918C11.0417 16.5177 12.4408 17.9168 14.1667 17.9168H16.0417C17.1923 17.9168 18.125 16.9841 18.125 15.8335V12.9168C18.125 11.7662 17.1923 10.8335 16.0417 10.8335H13.125ZM12.2917 12.9168C12.2917 12.4566 12.6648 12.0835 13.125 12.0835H16.0417C16.5019 12.0835 16.875 12.4566 16.875 12.9168V15.8335C16.875 16.2937 16.5019 16.6668 16.0417 16.6668H14.1667C13.1311 16.6668 12.2917 15.8274 12.2917 14.7918V12.9168Z" fill="black" fill-opacity="0.4"/>
<path fill-rule="evenodd" clip-rule="evenodd" d="M1.875 14.3752C1.875 12.3041 3.55393 10.6252 5.625 10.6252C7.69607 10.6252 9.375 12.3041 9.375 14.3752C9.375 16.4462 7.69607 18.1252 5.625 18.1252C3.55393 18.1252 1.875 16.4462 1.875 14.3752ZM5.625 11.8752C4.24429 11.8752 3.125 12.9945 3.125 14.3752C3.125 15.7559 4.24429 16.8752 5.625 16.8752C7.00571 16.8752 8.125 15.7559 8.125 14.3752C8.125 12.9945 7.00571 11.8752 5.625 11.8752Z" fill="black" fill-opacity="0.4"/>
</svg>
