<svg width="40" height="40" viewBox="0 0 40 40" fill="none" xmlns="http://www.w3.org/2000/svg">
<path d="M0 20C0 8.95431 8.95431 0 20 0C31.0457 0 40 8.95431 40 20C40 31.0457 31.0457 40 20 40C8.95431 40 0 31.0457 0 20Z" fill="black" fill-opacity="0.05"/>
<path fill-rule="evenodd" clip-rule="evenodd" d="M14.8246 13.9502H24.025C26.0823 13.9502 27.75 15.6179 27.75 17.6752V18.9502V23.6756C28.6151 23.4352 29.25 22.6419 29.25 21.7002V14.5002C29.25 13.368 28.3322 12.4502 27.2 12.4502H16.8C15.8583 12.4502 15.065 13.0851 14.8246 13.9502ZM27.75 25.2078V25.3252C27.75 27.3825 26.0823 29.0502 24.025 29.0502H12.975C10.9177 29.0502 9.25 27.3825 9.25 25.3252V18.9502V17.6752C9.25 15.6179 10.9177 13.9502 12.975 13.9502H13.2923C13.5567 12.2508 15.0265 10.9502 16.8 10.9502H27.2C29.1606 10.9502 30.75 12.5396 30.75 14.5002V21.7002C30.75 23.4737 29.4494 24.9435 27.75 25.2078ZM26.25 18.2002V17.6752C26.25 16.4464 25.2538 15.4502 24.025 15.4502H12.975C11.7462 15.4502 10.75 16.4464 10.75 17.6752V18.2002H26.25ZM10.75 19.7002H26.25V25.3252C26.25 26.554 25.2538 27.5502 24.025 27.5502H12.975C11.7462 27.5502 10.75 26.554 10.75 25.3252V19.7002ZM12.6504 24.9004C12.6504 24.4862 12.9862 24.1504 13.4004 24.1504H16.8004C17.2146 24.1504 17.5504 24.4862 17.5504 24.9004C17.5504 25.3146 17.2146 25.6504 16.8004 25.6504H13.4004C12.9862 25.6504 12.6504 25.3146 12.6504 24.9004Z" fill="black"/>
</svg>
