<svg width="260" height="260" viewBox="0 0 260 260" fill="none" xmlns="http://www.w3.org/2000/svg">
<path d="M130 7.8C130 3.49218 133.496 -0.0243918 137.796 0.233895C160.767 1.61369 183.012 9.07196 202.224 21.909C223.603 36.1935 240.265 56.4968 250.104 80.2512C259.944 104.006 262.518 130.144 257.502 155.362C252.486 180.579 240.105 203.743 221.924 221.924C203.743 240.105 180.579 252.486 155.362 257.502C130.144 262.518 104.006 259.944 80.2512 250.104C56.4968 240.265 36.1935 223.603 21.9089 202.224C9.07195 183.012 1.61369 160.767 0.233895 137.796C-0.0243919 133.496 3.49218 130 7.8 130C12.1078 130 15.5723 133.496 15.8658 137.794C17.2235 157.678 23.7574 176.911 34.8799 193.557C47.4503 212.37 65.3171 227.033 86.221 235.692C107.125 244.35 130.127 246.616 152.318 242.202C174.51 237.788 194.894 226.892 210.893 210.893C226.892 194.894 237.788 174.51 242.202 152.318C246.616 130.127 244.35 107.125 235.692 86.221C227.033 65.3171 212.37 47.4503 193.557 34.8799C176.911 23.7574 157.678 17.2235 137.794 15.8658C133.497 15.5723 130 12.1078 130 7.8Z" fill="url(#paint0_linear_953_9833)"/>
<path d="M7.89175 125.246C3.58719 125.078 0.209277 121.448 0.634562 117.161C3.58645 87.4067 16.7228 59.4868 37.9486 38.2023C59.1094 16.983 88.7094 3.7857 118.654 0.698856C123.059 0.244844 126.749 3.80257 126.749 8.23017C126.749 12.4044 123.453 15.8089 119.302 16.2496C93.1204 19.0289 67.5381 30.6233 48.9947 49.2179C30.5374 67.7262 19.0311 91.936 16.2545 117.771C15.7942 122.054 12.1963 125.413 7.89175 125.246Z" fill="black" fill-opacity="0.05"/>
<path d="M130 32.2969C130 27.9217 133.552 24.3441 137.915 24.6719C151.862 25.72 165.491 29.5304 177.997 35.9103C192.861 43.4925 205.717 54.4882 215.511 67.9965C225.306 81.5048 231.761 97.1415 234.348 113.625C236.935 130.109 235.579 146.972 230.393 162.831C225.207 178.69 216.337 193.095 204.51 204.866C192.684 216.636 178.237 225.437 162.353 230.548C146.469 235.659 129.601 236.934 113.129 234.269C99.2699 232.027 86.0233 227.048 74.1512 219.652C70.4377 217.339 69.6861 212.354 72.2712 208.824C74.8563 205.295 79.7974 204.562 83.5412 206.826C93.3708 212.77 104.272 216.786 115.66 218.629C129.661 220.894 143.999 219.81 157.5 215.466C171.001 211.122 183.281 203.641 193.334 193.636C203.386 183.631 210.926 171.387 215.334 157.906C219.743 144.426 220.895 130.093 218.696 116.082C216.497 102.07 211.01 88.7791 202.685 77.297C194.359 65.8149 183.432 56.4686 170.798 50.0237C160.522 44.7815 149.354 41.5803 137.912 40.568C133.554 40.1825 130 36.672 130 32.2969Z" fill="url(#paint1_linear_953_9833)"/>
<path d="M68.3047 205.589C65.5527 208.99 60.5411 209.538 57.3557 206.538C43.7696 193.747 33.7781 177.547 28.4646 159.561C22.401 139.036 22.7156 117.153 29.3667 96.811C36.0177 76.4686 48.6915 58.6266 65.7094 45.6481C80.5448 34.334 99.4761 27.182 118.25 24.8493C122.73 24.2926 126.512 27.9146 126.512 32.4293C126.512 36.646 123.194 40.0857 119.013 40.631C103.32 42.6778 87.7954 48.7299 75.3172 58.2463C60.852 69.278 50.0793 84.4437 44.4259 101.735C38.7725 119.026 38.5051 137.626 43.6592 155.072C48.0628 169.979 56.2465 183.441 67.3567 194.183C70.5022 197.224 71.0567 202.188 68.3047 205.589Z" fill="black" fill-opacity="0.05"/>
<path d="M130 56.875C130 52.3877 133.647 48.7079 138.112 49.1559C150.958 50.4448 163.354 54.782 174.248 61.8557C187.421 70.4091 197.832 82.5972 204.222 96.9448C210.612 111.292 212.706 127.184 210.252 142.698C207.797 158.211 200.899 172.68 190.392 184.354C179.885 196.028 166.22 204.407 151.05 208.476C135.88 212.545 119.856 212.13 104.917 207.281C89.978 202.433 76.7646 193.358 66.8759 181.156C58.698 171.064 53.0838 159.192 50.4537 146.552C49.5396 142.158 52.8163 138.145 57.2788 137.675C61.7414 137.204 65.6902 140.459 66.7138 144.828C68.944 154.346 73.3016 163.275 79.5007 170.925C87.4117 180.686 97.9824 187.946 109.934 191.825C121.885 195.704 134.704 196.036 146.84 192.781C158.976 189.525 169.908 182.823 178.314 173.483C186.719 164.144 192.238 152.569 194.201 140.158C196.165 127.748 194.489 115.034 189.378 103.556C184.266 92.0778 175.937 82.3273 165.399 75.4845C157.141 70.1225 147.804 66.726 138.104 65.5071C133.652 64.9477 130 61.3623 130 56.875Z" fill="url(#paint2_linear_953_9833)"/>
<path d="M56.9306 132.849C52.4467 133.024 48.6275 129.523 48.9011 125.044C50.0185 106.747 57.3033 89.2727 69.6949 75.5487C81.9956 61.9254 99.8583 52.932 118.163 49.892C122.77 49.1269 126.722 52.8594 126.722 57.5293C126.722 61.8011 123.388 65.287 119.182 66.039C104.937 68.5863 91.4324 75.7218 81.7559 86.4388C72.2092 97.0121 66.4513 110.368 65.2402 124.414C64.8547 128.885 61.4145 132.674 56.9306 132.849Z" fill="black" fill-opacity="0.05"/>
<path d="M102.514 97.8184V90.9398H103.345V97.0797H106.66V97.8184H102.514ZM109.485 97.9292C109.008 97.9292 108.6 97.8199 108.262 97.6014C107.926 97.3829 107.669 97.0828 107.491 96.7012C107.312 96.3165 107.223 95.8794 107.223 95.3901C107.223 94.8946 107.317 94.4545 107.505 94.0698C107.693 93.6851 107.953 93.3835 108.285 93.165C108.617 92.9434 108.999 92.8326 109.43 92.8326C109.882 92.8326 110.275 92.9403 110.607 93.1557C110.939 93.3712 111.195 93.6712 111.373 94.0559C111.555 94.4406 111.646 94.8854 111.646 95.3901V95.6071H107.999C108.017 96.0841 108.154 96.4719 108.41 96.7704C108.665 97.069 109.024 97.2182 109.485 97.2182C109.833 97.2182 110.116 97.1382 110.335 96.9782C110.556 96.8181 110.704 96.6119 110.778 96.3596H111.563C111.501 96.6704 111.373 96.9443 111.18 97.1813C110.986 97.4152 110.742 97.5983 110.45 97.7306C110.161 97.863 109.839 97.9292 109.485 97.9292ZM108.008 94.9331H110.861C110.818 94.5053 110.669 94.1652 110.413 93.9128C110.158 93.6605 109.83 93.5343 109.43 93.5343C109.03 93.5343 108.704 93.6605 108.451 93.9128C108.199 94.1652 108.051 94.5053 108.008 94.9331ZM114.67 92.9434V93.6174H113.682V97.8184H112.897V93.6174H112.029V92.9434H112.897V92.0755C112.897 91.7277 113.012 91.4522 113.243 91.2491C113.474 91.0429 113.786 90.9398 114.18 90.9398H114.67V91.6138H114.254C114.048 91.6138 113.9 91.6584 113.811 91.7477C113.725 91.8369 113.682 91.9862 113.682 92.1955V92.9434H114.67ZM117.246 92.9434V93.6174H116.258V96.6365C116.258 96.8243 116.296 96.9566 116.373 97.0336C116.453 97.1074 116.593 97.1444 116.793 97.1444H117.246V97.8184H116.719C115.888 97.8184 115.473 97.4521 115.473 96.7196V93.6174H114.605V92.9434H115.473V91.6138H116.258V92.9434H117.246ZM122.555 92.9434V93.6174H121.567V96.6365C121.567 96.8243 121.605 96.9566 121.682 97.0336C121.762 97.1074 121.902 97.1444 122.102 97.1444H122.555V97.8184H122.028C121.197 97.8184 120.782 97.4521 120.782 96.7196V93.6174H119.914V92.9434H120.782V91.6138H121.567V92.9434H122.555ZM125.292 97.9292C124.843 97.9292 124.447 97.8214 124.106 97.606C123.767 97.3875 123.502 97.0874 123.312 96.7058C123.124 96.3242 123.03 95.8856 123.03 95.3901C123.03 94.8915 123.124 94.4499 123.312 94.0652C123.502 93.6805 123.767 93.3788 124.106 93.1603C124.447 92.9418 124.843 92.8326 125.292 92.8326C125.744 92.8326 126.14 92.9418 126.479 93.1603C126.817 93.3788 127.08 93.6805 127.268 94.0652C127.459 94.4499 127.554 94.8915 127.554 95.3901C127.554 95.8856 127.459 96.3242 127.268 96.7058C127.08 97.0874 126.817 97.3875 126.479 97.606C126.14 97.8214 125.744 97.9292 125.292 97.9292ZM125.292 97.2182C125.754 97.2182 126.114 97.052 126.372 96.7196C126.631 96.3842 126.76 95.941 126.76 95.3901C126.76 94.833 126.629 94.3868 126.368 94.0513C126.109 93.7128 125.751 93.5435 125.292 93.5435C124.834 93.5435 124.473 93.7112 124.212 94.0467C123.953 94.3822 123.824 94.83 123.824 95.3901C123.824 95.9441 123.953 96.3873 124.212 96.7196C124.47 97.052 124.83 97.2182 125.292 97.2182ZM133.205 97.9292C132.675 97.9292 132.217 97.8353 131.829 97.6475C131.441 97.4567 131.141 97.1874 130.929 96.8397C130.716 96.4919 130.61 96.0795 130.61 95.6025H131.46C131.46 96.0949 131.612 96.4796 131.917 96.7566C132.224 97.0336 132.654 97.1721 133.205 97.1721C133.706 97.1721 134.108 97.0628 134.41 96.8443C134.714 96.6258 134.867 96.3319 134.867 95.9625C134.867 95.6763 134.764 95.444 134.557 95.2654C134.351 95.0869 134 94.9361 133.505 94.813L132.734 94.6238C132.032 94.4514 131.526 94.2206 131.215 93.9313C130.904 93.642 130.749 93.2634 130.749 92.7956C130.749 92.3986 130.846 92.0539 131.04 91.7615C131.237 91.4661 131.514 91.2368 131.871 91.0737C132.228 90.9106 132.645 90.829 133.122 90.829C133.839 90.829 134.41 91.0214 134.834 91.4061C135.262 91.7877 135.485 92.3094 135.504 92.9711H134.682C134.657 92.5402 134.503 92.2032 134.22 91.96C133.937 91.7138 133.562 91.5907 133.094 91.5907C132.648 91.5907 132.281 91.7 131.995 91.9185C131.712 92.1339 131.57 92.4125 131.57 92.7541C131.57 93.0218 131.675 93.2404 131.884 93.4096C132.097 93.5758 132.452 93.722 132.951 93.8482L133.731 94.0421C134.402 94.2083 134.897 94.4437 135.218 94.7484C135.538 95.0531 135.698 95.4455 135.698 95.9256C135.698 96.3226 135.593 96.6719 135.384 96.9735C135.177 97.2752 134.887 97.5106 134.511 97.6799C134.139 97.8461 133.703 97.9292 133.205 97.9292ZM136.639 99.748V92.9434H137.406V93.6635H137.415C137.572 93.3896 137.789 93.1865 138.066 93.0542C138.343 92.9187 138.64 92.851 138.957 92.851C139.382 92.851 139.752 92.9572 140.069 93.1696C140.386 93.3819 140.633 93.6789 140.808 94.0605C140.983 94.4391 141.071 94.8792 141.071 95.3809C141.071 95.8794 140.983 96.3195 140.808 96.7012C140.633 97.0797 140.386 97.3767 140.069 97.5922C139.752 97.8045 139.382 97.9107 138.957 97.9107C138.64 97.9107 138.351 97.843 138.089 97.7076C137.827 97.5691 137.609 97.3598 137.433 97.0797H137.424V99.748H136.639ZM138.837 97.2044C139.258 97.2044 139.603 97.0505 139.871 96.7427C140.142 96.4319 140.277 95.9779 140.277 95.3809C140.277 94.7838 140.142 94.3298 139.871 94.019C139.603 93.7082 139.258 93.5527 138.837 93.5527C138.384 93.5527 138.024 93.7205 137.757 94.0559C137.492 94.3883 137.36 94.83 137.36 95.3809C137.36 95.9318 137.492 96.3734 137.757 96.7058C138.024 97.0382 138.384 97.2044 138.837 97.2044ZM143.998 97.9292C143.521 97.9292 143.113 97.8199 142.775 97.6014C142.439 97.3829 142.182 97.0828 142.004 96.7012C141.825 96.3165 141.736 95.8794 141.736 95.3901C141.736 94.8946 141.83 94.4545 142.018 94.0698C142.205 93.6851 142.465 93.3835 142.798 93.165C143.13 92.9434 143.512 92.8326 143.943 92.8326C144.395 92.8326 144.787 92.9403 145.12 93.1557C145.452 93.3712 145.708 93.6712 145.886 94.0559C146.068 94.4406 146.159 94.8854 146.159 95.3901V95.6071H142.512C142.53 96.0841 142.667 96.4719 142.922 96.7704C143.178 97.069 143.536 97.2182 143.998 97.2182C144.346 97.2182 144.629 97.1382 144.847 96.9782C145.069 96.8181 145.217 96.6119 145.291 96.3596H146.075C146.014 96.6704 145.886 96.9443 145.692 97.1813C145.498 97.4152 145.255 97.5983 144.963 97.7306C144.674 97.863 144.352 97.9292 143.998 97.9292ZM142.521 94.9331H145.374C145.331 94.5053 145.181 94.1652 144.926 93.9128C144.671 93.6605 144.343 93.5343 143.943 93.5343C143.543 93.5343 143.216 93.6605 142.964 93.9128C142.712 94.1652 142.564 94.5053 142.521 94.9331ZM147.839 94.9654V97.8184H147.054V92.9434H147.82V93.6589C147.99 93.3819 148.196 93.1788 148.439 93.0495C148.685 92.9172 148.962 92.851 149.27 92.851C149.599 92.851 149.899 92.9234 150.17 93.068C150.441 93.2096 150.657 93.4235 150.817 93.7097C150.98 93.9959 151.061 94.356 151.061 94.79V97.8184H150.276V94.8453C150.276 94.4237 150.175 94.1067 149.972 93.8944C149.772 93.6789 149.489 93.5712 149.122 93.5712C148.768 93.5712 148.465 93.6805 148.213 93.899C147.964 94.1175 147.839 94.473 147.839 94.9654ZM154.09 97.9107C153.668 97.9107 153.297 97.8045 152.977 97.5922C152.66 97.3767 152.414 97.0797 152.238 96.7012C152.063 96.3195 151.975 95.8794 151.975 95.3809C151.975 94.8792 152.063 94.4391 152.238 94.0605C152.414 93.6789 152.66 93.3819 152.977 93.1696C153.297 92.9572 153.668 92.851 154.09 92.851C154.407 92.851 154.701 92.9187 154.971 93.0542C155.242 93.1865 155.456 93.3896 155.613 93.6635H155.622V90.9398H156.407V97.8184H155.641V97.0797H155.632C155.456 97.3598 155.235 97.5691 154.967 97.7076C154.699 97.843 154.407 97.9107 154.09 97.9107ZM154.21 97.2044C154.662 97.2044 155.021 97.0382 155.285 96.7058C155.553 96.3734 155.687 95.9318 155.687 95.3809C155.687 94.83 155.553 94.3883 155.285 94.0559C155.021 93.7205 154.662 93.5527 154.21 93.5527C153.788 93.5527 153.442 93.7082 153.171 94.019C152.903 94.3298 152.769 94.7838 152.769 95.3809C152.769 95.9779 152.903 96.4319 153.171 96.7427C153.442 97.0505 153.788 97.2044 154.21 97.2044Z" fill="#667085"/>
<path d="M91.6739 122.503V124.006H86.3338V122.503H91.6739ZM97.111 131.058V129.426C95.8938 129.303 94.9378 128.885 94.243 128.174C93.5536 127.463 93.2089 126.529 93.2089 125.371H95.0024C95.0078 126.044 95.1936 126.596 95.5598 127.027C95.9261 127.453 96.4431 127.725 97.111 127.843V123.844L96.9494 123.804C95.7322 123.513 94.8435 123.109 94.2834 122.592C93.7286 122.069 93.4513 121.391 93.4513 120.556C93.4513 119.586 93.7825 118.789 94.445 118.165C95.1074 117.54 95.9961 117.176 97.111 117.074V115.45H98.4844V117.082C99.5669 117.211 100.423 117.604 101.053 118.261C101.684 118.919 102.015 119.778 102.047 120.839H100.31C100.272 120.268 100.092 119.799 99.7689 119.433C99.4511 119.061 99.023 118.814 98.4844 118.69V122.462L98.8398 122.543C100.046 122.829 100.935 123.241 101.506 123.779C102.082 124.318 102.37 125.018 102.37 125.88C102.37 126.882 102.02 127.7 101.32 128.336C100.62 128.971 99.6747 129.34 98.4844 129.443V131.058H97.111ZM98.4844 127.867C99.1253 127.781 99.6343 127.574 100.011 127.245C100.388 126.911 100.577 126.488 100.577 125.977C100.577 125.535 100.415 125.174 100.092 124.894C99.7743 124.609 99.2384 124.366 98.4844 124.167V127.867ZM97.111 122.123V118.657C96.5508 118.749 96.0984 118.959 95.7537 119.288C95.409 119.611 95.2367 120.004 95.2367 120.467C95.2367 120.86 95.3821 121.189 95.6729 121.453C95.9638 121.711 96.4431 121.935 97.111 122.123ZM108.025 117.235V129.273H106.289V118.997H106.28L103.34 120.919V119.207L106.337 117.235H108.025ZM114.311 129.467C113.379 129.467 112.574 129.214 111.895 128.707C111.222 128.201 110.702 127.485 110.336 126.558C109.97 125.627 109.787 124.528 109.787 123.262C109.787 121.991 109.97 120.89 110.336 119.958C110.702 119.026 111.222 118.307 111.895 117.801C112.574 117.295 113.379 117.042 114.311 117.042C115.237 117.042 116.037 117.295 116.71 117.801C117.389 118.307 117.911 119.026 118.278 119.958C118.644 120.89 118.827 121.991 118.827 123.262C118.827 124.528 118.644 125.627 118.278 126.558C117.911 127.485 117.389 128.201 116.71 128.707C116.037 129.214 115.237 129.467 114.311 129.467ZM114.311 127.94C115.183 127.94 115.87 127.525 116.371 126.696C116.877 125.861 117.13 124.716 117.13 123.262C117.13 121.803 116.877 120.656 116.371 119.821C115.87 118.986 115.183 118.568 114.311 118.568C113.433 118.568 112.741 118.986 112.235 119.821C111.734 120.656 111.483 121.803 111.483 123.262C111.483 124.716 111.734 125.861 112.235 126.696C112.741 127.525 113.433 127.94 114.311 127.94ZM119.465 131.624L120.136 127.496H121.881L120.685 131.624H119.465ZM127.463 129.443C126.661 129.443 125.944 129.284 125.314 128.966C124.689 128.643 124.189 128.201 123.812 127.641C123.44 127.076 123.238 126.432 123.206 125.71H124.959C125.013 126.356 125.271 126.89 125.734 127.31C126.203 127.725 126.782 127.932 127.471 127.932C128.198 127.932 128.785 127.687 129.232 127.197C129.685 126.707 129.911 126.079 129.911 125.314C129.911 124.555 129.693 123.93 129.257 123.44C128.82 122.945 128.252 122.697 127.552 122.697C126.938 122.697 126.41 122.823 125.969 123.076C125.527 123.324 125.22 123.685 125.048 124.159H123.359L123.755 117.235H130.953V118.77H125.363L125.096 122.317H125.112C125.818 121.568 126.72 121.194 127.819 121.194C128.551 121.194 129.203 121.372 129.774 121.727C130.35 122.077 130.802 122.562 131.131 123.182C131.465 123.795 131.632 124.496 131.632 125.282C131.632 126.095 131.457 126.814 131.107 127.439C130.762 128.064 130.277 128.554 129.653 128.909C129.028 129.265 128.298 129.443 127.463 129.443ZM133.506 129.273L138.806 118.795V118.787H132.674V117.235H140.616V118.835L135.364 129.273H133.506ZM145.479 129.467C144.752 129.467 144.106 129.33 143.54 129.055C142.98 128.775 142.527 128.387 142.183 127.891C141.843 127.396 141.636 126.825 141.561 126.179H143.282C143.384 126.723 143.621 127.156 143.992 127.479C144.364 127.803 144.841 127.964 145.422 127.964C146.079 127.964 146.621 127.778 147.046 127.407C147.477 127.035 147.798 126.523 148.008 125.872C148.218 125.22 148.323 124.469 148.323 123.618H148.307C148.026 124.081 147.625 124.439 147.103 124.692C146.586 124.94 146.007 125.064 145.366 125.064C144.623 125.064 143.96 124.892 143.378 124.547C142.797 124.202 142.339 123.731 142.005 123.133C141.671 122.535 141.504 121.854 141.504 121.089C141.504 120.287 141.682 119.581 142.037 118.972C142.393 118.364 142.883 117.89 143.508 117.551C144.132 117.211 144.854 117.042 145.673 117.042C147.062 117.042 148.137 117.545 148.896 118.552C149.661 119.559 150.044 120.979 150.044 122.81C150.044 124.151 149.877 125.32 149.543 126.316C149.209 127.312 148.702 128.088 148.024 128.643C147.351 129.192 146.502 129.467 145.479 129.467ZM145.632 123.577C146.09 123.577 146.505 123.467 146.877 123.246C147.254 123.025 147.553 122.726 147.773 122.349C147.994 121.967 148.105 121.542 148.105 121.073C148.105 120.599 147.997 120.173 147.781 119.796C147.566 119.414 147.272 119.112 146.901 118.892C146.535 118.665 146.125 118.552 145.673 118.552C145.22 118.552 144.808 118.665 144.437 118.892C144.065 119.112 143.769 119.414 143.548 119.796C143.333 120.179 143.225 120.61 143.225 121.089C143.225 121.563 143.33 121.989 143.54 122.366C143.755 122.737 144.044 123.033 144.404 123.254C144.771 123.47 145.18 123.577 145.632 123.577ZM152.136 129.41C151.824 129.41 151.557 129.303 151.336 129.087C151.121 128.866 151.013 128.597 151.013 128.279C151.013 127.967 151.121 127.7 151.336 127.479C151.557 127.259 151.824 127.148 152.136 127.148C152.454 127.148 152.72 127.259 152.936 127.479C153.157 127.7 153.267 127.967 153.267 128.279C153.267 128.597 153.157 128.866 152.936 129.087C152.72 129.303 152.454 129.41 152.136 129.41ZM154.77 129.273V127.851L159.1 123.989C159.558 123.575 159.94 123.203 160.247 122.875C160.554 122.541 160.783 122.212 160.934 121.889C161.09 121.566 161.168 121.202 161.168 120.798C161.168 120.114 160.963 119.573 160.554 119.174C160.145 118.77 159.587 118.568 158.882 118.568C158.117 118.568 157.522 118.805 157.096 119.279C156.671 119.753 156.458 120.397 156.458 121.21H154.786C154.786 120.386 154.953 119.662 155.287 119.037C155.626 118.412 156.1 117.925 156.709 117.575C157.323 117.219 158.044 117.042 158.874 117.042C159.649 117.042 160.336 117.198 160.934 117.51C161.532 117.817 162 118.248 162.339 118.803C162.684 119.352 162.857 119.99 162.857 120.717C162.857 121.52 162.636 122.244 162.194 122.891C161.752 123.532 161.098 124.24 160.231 125.015L157.209 127.73V127.746H162.921V129.273H154.77ZM168.504 129.467C167.669 129.467 166.931 129.321 166.29 129.031C165.655 128.74 165.156 128.338 164.795 127.827C164.435 127.315 164.254 126.728 164.254 126.066C164.254 125.527 164.37 125.04 164.602 124.603C164.833 124.162 165.148 123.801 165.547 123.521C165.951 123.235 166.409 123.06 166.92 122.996C166.258 122.872 165.719 122.568 165.304 122.083C164.89 121.598 164.682 120.998 164.682 120.281C164.682 119.656 164.847 119.102 165.175 118.617C165.504 118.127 165.956 117.742 166.532 117.462C167.109 117.182 167.766 117.042 168.504 117.042C169.242 117.042 169.896 117.182 170.467 117.462C171.043 117.736 171.496 118.119 171.824 118.609C172.153 119.099 172.317 119.656 172.317 120.281C172.317 120.992 172.107 121.593 171.687 122.083C171.272 122.568 170.739 122.872 170.087 122.996C170.599 123.066 171.054 123.243 171.452 123.529C171.856 123.809 172.174 124.17 172.406 124.611C172.637 125.048 172.753 125.532 172.753 126.066C172.753 126.728 172.573 127.315 172.212 127.827C171.851 128.338 171.35 128.74 170.709 129.031C170.068 129.321 169.333 129.467 168.504 129.467ZM168.504 128.005C169.247 128.005 169.842 127.819 170.289 127.447C170.736 127.076 170.96 126.58 170.96 125.961C170.96 125.33 170.728 124.813 170.265 124.409C169.807 124 169.22 123.795 168.504 123.795C167.782 123.795 167.189 124 166.726 124.409C166.263 124.813 166.032 125.33 166.032 125.961C166.032 126.575 166.255 127.07 166.702 127.447C167.154 127.819 167.755 128.005 168.504 128.005ZM168.504 122.349C169.123 122.349 169.624 122.174 170.006 121.824C170.394 121.469 170.588 121 170.588 120.419C170.588 119.848 170.397 119.387 170.014 119.037C169.632 118.687 169.128 118.512 168.504 118.512C167.873 118.512 167.367 118.687 166.985 119.037C166.602 119.387 166.411 119.848 166.411 120.419C166.411 120.995 166.602 121.461 166.985 121.816C167.373 122.172 167.879 122.349 168.504 122.349Z" fill="#FC5452"/>
<rect x="98.2285" y="144.728" width="62.3636" height="28.4545" rx="14.2273" fill="black" fill-opacity="0.05"/>
<path d="M116.759 164.621C116.085 164.621 115.491 164.459 114.979 164.136C114.471 163.808 114.074 163.358 113.788 162.786C113.506 162.213 113.366 161.555 113.366 160.812C113.366 160.064 113.506 159.402 113.788 158.825C114.074 158.248 114.471 157.795 114.979 157.468C115.491 157.14 116.085 156.976 116.759 156.976C117.437 156.976 118.031 157.14 118.538 157.468C119.046 157.795 119.441 158.248 119.722 158.825C120.009 159.402 120.152 160.064 120.152 160.812C120.152 161.555 120.009 162.213 119.722 162.786C119.441 163.358 119.046 163.808 118.538 164.136C118.031 164.459 117.437 164.621 116.759 164.621ZM116.759 163.554C117.451 163.554 117.991 163.305 118.379 162.807C118.767 162.303 118.961 161.639 118.961 160.812C118.961 159.977 118.765 159.307 118.372 158.804C117.984 158.296 117.447 158.042 116.759 158.042C116.071 158.042 115.531 158.294 115.138 158.797C114.751 159.3 114.557 159.972 114.557 160.812C114.557 161.643 114.751 162.308 115.138 162.807C115.526 163.305 116.066 163.554 116.759 163.554ZM124.715 157.142V158.153H123.233V164.455H122.056V158.153H120.754V157.142H122.056V155.84C122.056 155.319 122.229 154.905 122.575 154.601C122.922 154.291 123.39 154.137 123.981 154.137H124.715V155.148H124.092C123.783 155.148 123.561 155.215 123.427 155.349C123.298 155.482 123.233 155.706 123.233 156.02V157.142H124.715ZM132.332 165.992V164.586C131.331 164.475 130.539 164.115 129.957 163.506C129.376 162.897 129.085 162.105 129.085 161.131H130.359C130.359 161.768 130.53 162.287 130.871 162.689C131.218 163.086 131.705 163.335 132.332 163.437V159.677L132.27 159.663C131.218 159.404 130.458 159.058 129.992 158.624C129.526 158.19 129.292 157.622 129.292 156.92C129.292 156.103 129.567 155.434 130.116 154.912C130.666 154.386 131.404 154.079 132.332 153.991V152.599H133.44V154.005C134.345 154.107 135.063 154.439 135.594 155.002C136.125 155.561 136.402 156.288 136.425 157.184H135.192C135.16 156.644 134.989 156.2 134.68 155.854C134.371 155.503 133.957 155.275 133.44 155.169V158.707L133.766 158.79C134.772 159.039 135.515 159.393 135.996 159.85C136.476 160.307 136.716 160.895 136.716 161.615C136.716 162.169 136.58 162.663 136.307 163.097C136.039 163.527 135.659 163.873 135.165 164.136C134.675 164.395 134.1 164.549 133.44 164.6V165.992H132.332ZM133.44 163.464C134.059 163.395 134.551 163.204 134.915 162.89C135.285 162.571 135.469 162.165 135.469 161.671C135.469 161.242 135.315 160.893 135.005 160.625C134.701 160.357 134.179 160.131 133.44 159.947V163.464ZM132.332 158.43V155.148C131.792 155.222 131.356 155.413 131.024 155.723C130.691 156.032 130.525 156.41 130.525 156.858C130.525 157.237 130.664 157.548 130.941 157.793C131.218 158.038 131.681 158.25 132.332 158.43ZM141.605 164.621C140.843 164.621 140.183 164.404 139.624 163.97C139.07 163.531 138.641 162.915 138.336 162.121C138.031 161.327 137.879 160.387 137.879 159.303C137.879 158.213 138.031 157.271 138.336 156.477C138.641 155.679 139.07 155.062 139.624 154.628C140.183 154.19 140.843 153.971 141.605 153.971C142.366 153.971 143.026 154.19 143.585 154.628C144.144 155.062 144.573 155.679 144.873 156.477C145.178 157.271 145.33 158.213 145.33 159.303C145.33 160.387 145.178 161.327 144.873 162.121C144.573 162.915 144.144 163.531 143.585 163.97C143.026 164.404 142.366 164.621 141.605 164.621ZM141.605 163.513C142.394 163.513 143.015 163.139 143.467 162.391C143.924 161.639 144.153 160.609 144.153 159.303C144.153 157.987 143.924 156.955 143.467 156.207C143.015 155.455 142.394 155.079 141.605 155.079C140.815 155.079 140.192 155.455 139.735 156.207C139.282 156.955 139.056 157.987 139.056 159.303C139.056 160.609 139.282 161.639 139.735 162.391C140.192 163.139 140.815 163.513 141.605 163.513Z" fill="black" fill-opacity="0.6"/>
<defs>
<linearGradient id="paint0_linear_953_9833" x1="130" y1="0" x2="130" y2="260" gradientUnits="userSpaceOnUse">
<stop stop-color="#1DBF73"/>
<stop offset="1" stop-color="#B2BF59"/>
</linearGradient>
<linearGradient id="paint1_linear_953_9833" x1="223.844" y1="132.844" x2="130" y2="235.625" gradientUnits="userSpaceOnUse">
<stop stop-color="#FC5452"/>
<stop offset="1" stop-color="#FD9C9B"/>
</linearGradient>
<linearGradient id="paint2_linear_953_9833" x1="130" y1="48.75" x2="130" y2="211.25" gradientUnits="userSpaceOnUse">
<stop stop-color="#578FCA"/>
<stop offset="1" stop-color="#4583C4"/>
</linearGradient>
</defs>
</svg>
