<svg width="1280" height="440" viewBox="0 0 1280 440" fill="none" xmlns="http://www.w3.org/2000/svg">
<g clip-path="url(#clip0_734_16861)">
<rect width="1280" height="440" rx="40" fill="#033220"/>
<g filter="url(#filter0_fn_734_16861)">
<circle cx="86" cy="528" r="328" fill="#1BB15F"/>
</g>
<g filter="url(#filter1_fn_734_16861)">
<circle cx="1383" cy="-12" r="328" fill="#F8F36A"/>
</g>
<g opacity="0.6">
<mask id="mask0_734_16861" style="mask-type:alpha" maskUnits="userSpaceOnUse" x="-232" y="-264" width="2194" height="1552">
<g opacity="0.12">
<rect x="-11.2826" y="-40.9818" width="109.592" height="109.592" stroke="white" stroke-width="1.1536"/>
<rect x="98.3092" y="-40.9818" width="109.592" height="109.592" stroke="white" stroke-width="1.1536"/>
<rect x="207.901" y="-40.9818" width="109.592" height="109.592" stroke="white" stroke-width="1.1536"/>
<rect x="317.493" y="-40.9818" width="109.592" height="109.592" stroke="white" stroke-width="1.1536"/>
<rect x="427.087" y="-40.9818" width="109.592" height="109.592" stroke="white" stroke-width="1.1536"/>
<rect x="536.678" y="-40.9818" width="109.592" height="109.592" stroke="white" stroke-width="1.1536"/>
<rect x="646.27" y="-40.9818" width="109.592" height="109.592" stroke="white" stroke-width="1.1536"/>
<rect x="755.862" y="-40.9818" width="109.592" height="109.592" stroke="white" stroke-width="1.1536"/>
<rect x="865.456" y="-40.9818" width="109.592" height="109.592" stroke="white" stroke-width="1.1536"/>
<rect x="975.048" y="-40.9818" width="109.592" height="109.592" stroke="white" stroke-width="1.1536"/>
<rect x="1084.64" y="-40.9818" width="109.592" height="109.592" stroke="white" stroke-width="1.1536"/>
<rect x="1194.23" y="-40.9818" width="109.592" height="109.592" stroke="white" stroke-width="1.1536"/>
<rect x="-11.2826" y="69.7643" width="109.592" height="109.592" stroke="white" stroke-width="1.1536"/>
<rect x="98.3092" y="69.7643" width="109.592" height="109.592" stroke="white" stroke-width="1.1536"/>
<rect x="207.901" y="69.7643" width="109.592" height="109.592" stroke="white" stroke-width="1.1536"/>
<rect x="317.493" y="69.7643" width="109.592" height="109.592" stroke="white" stroke-width="1.1536"/>
<rect x="427.087" y="69.7643" width="109.592" height="109.592" stroke="white" stroke-width="1.1536"/>
<rect x="536.678" y="69.7643" width="109.592" height="109.592" stroke="white" stroke-width="1.1536"/>
<rect x="646.27" y="69.7643" width="109.592" height="109.592" stroke="white" stroke-width="1.1536"/>
<rect x="755.862" y="69.7643" width="109.592" height="109.592" stroke="white" stroke-width="1.1536"/>
<rect x="865.456" y="69.7643" width="109.592" height="109.592" stroke="white" stroke-width="1.1536"/>
<rect x="975.048" y="69.7643" width="109.592" height="109.592" stroke="white" stroke-width="1.1536"/>
<rect x="1084.64" y="69.7643" width="109.592" height="109.592" stroke="white" stroke-width="1.1536"/>
<rect x="1194.23" y="69.7643" width="109.592" height="109.592" stroke="white" stroke-width="1.1536"/>
<rect x="-11.2826" y="180.51" width="109.592" height="109.592" stroke="white" stroke-width="1.1536"/>
<rect x="98.3092" y="180.51" width="109.592" height="109.592" stroke="white" stroke-width="1.1536"/>
<rect x="207.901" y="180.51" width="109.592" height="109.592" stroke="white" stroke-width="1.1536"/>
<rect x="316.916" y="179.934" width="110.746" height="110.746" fill="white" fill-opacity="0.13"/>
<rect x="427.087" y="180.51" width="109.592" height="109.592" stroke="white" stroke-width="1.1536"/>
<rect x="536.678" y="180.51" width="109.592" height="109.592" stroke="white" stroke-width="1.1536"/>
<rect x="646.27" y="180.51" width="109.592" height="109.592" stroke="white" stroke-width="1.1536"/>
<rect x="755.862" y="180.51" width="109.592" height="109.592" stroke="white" stroke-width="1.1536"/>
<rect x="865.456" y="180.51" width="109.592" height="109.592" stroke="white" stroke-width="1.1536"/>
<rect x="975.048" y="180.51" width="109.592" height="109.592" stroke="white" stroke-width="1.1536"/>
<rect x="1084.06" y="179.934" width="110.746" height="110.746" fill="white" fill-opacity="0.13"/>
<rect x="1194.23" y="180.51" width="109.592" height="109.592" stroke="white" stroke-width="1.1536"/>
<rect x="-11.2826" y="291.256" width="109.592" height="109.592" stroke="white" stroke-width="1.1536"/>
<rect x="98.3092" y="291.256" width="109.592" height="109.592" stroke="white" stroke-width="1.1536"/>
<rect x="207.324" y="290.68" width="110.746" height="110.746" fill="white" fill-opacity="0.13"/>
<rect x="317.493" y="291.256" width="109.592" height="109.592" stroke="white" stroke-width="1.1536"/>
<rect x="426.51" y="290.68" width="110.746" height="110.746" fill="white" fill-opacity="0.13"/>
<rect x="536.678" y="291.256" width="109.592" height="109.592" stroke="white" stroke-width="1.1536"/>
<rect x="646.27" y="291.256" width="109.592" height="109.592" stroke="white" stroke-width="1.1536"/>
<rect x="755.862" y="291.256" width="109.592" height="109.592" stroke="white" stroke-width="1.1536"/>
<rect x="865.456" y="291.256" width="109.592" height="109.592" stroke="white" stroke-width="1.1536"/>
<rect x="974.471" y="290.68" width="110.746" height="110.746" fill="white" fill-opacity="0.13"/>
<rect x="1084.64" y="291.256" width="109.592" height="109.592" stroke="white" stroke-width="1.1536"/>
<rect x="1193.66" y="290.68" width="110.746" height="110.746" fill="white" fill-opacity="0.13"/>
<rect x="-11.2826" y="402.001" width="109.592" height="109.592" stroke="white" stroke-width="1.1536"/>
<rect x="97.7324" y="401.424" width="110.746" height="110.746" fill="white" fill-opacity="0.13"/>
<rect x="207.901" y="402.001" width="109.592" height="109.592" stroke="white" stroke-width="1.1536"/>
<rect x="316.916" y="401.424" width="110.746" height="110.746" fill="white" fill-opacity="0.13"/>
<rect x="427.087" y="402.001" width="109.592" height="109.592" stroke="white" stroke-width="1.1536"/>
<rect x="536.678" y="402.001" width="109.592" height="109.592" stroke="white" stroke-width="1.1536"/>
<rect x="646.27" y="402.001" width="109.592" height="109.592" stroke="white" stroke-width="1.1536"/>
<rect x="755.862" y="402.001" width="109.592" height="109.592" stroke="white" stroke-width="1.1536"/>
<rect x="865.456" y="402.001" width="109.592" height="109.592" stroke="white" stroke-width="1.1536"/>
<rect x="975.048" y="402.001" width="109.592" height="109.592" stroke="white" stroke-width="1.1536"/>
<rect x="1084.06" y="401.424" width="110.746" height="110.746" fill="white" fill-opacity="0.13"/>
<rect x="1194.23" y="402.001" width="109.592" height="109.592" stroke="white" stroke-width="1.1536"/>
</g>
</mask>
<g mask="url(#mask0_734_16861)">
<g filter="url(#filter2_f_734_16861)">
<ellipse cx="753.859" cy="456.737" rx="378.317" ry="366.617" transform="rotate(34.13 753.859 456.737)" fill="#D9D9D9"/>
</g>
<g filter="url(#filter3_f_734_16861)">
<ellipse cx="182.102" cy="136.691" rx="264.251" ry="180.382" transform="rotate(30.1452 182.102 136.691)" fill="#D9D9D9"/>
</g>
<g filter="url(#filter4_f_734_16861)">
<ellipse cx="1297.93" cy="96.4559" rx="231.636" ry="205.508" transform="rotate(-15 1297.93 96.4559)" fill="#D9D9D9"/>
</g>
<g filter="url(#filter5_f_734_16861)">
<ellipse cx="137.659" cy="736.244" rx="260.773" ry="192.701" transform="rotate(-37.1362 137.659 736.244)" fill="#D9D9D9"/>
</g>
</g>
</g>
</g>
<defs>
<filter id="filter0_fn_734_16861" x="-842" y="-400" width="1856" height="1856" filterUnits="userSpaceOnUse" color-interpolation-filters="sRGB">
<feFlood flood-opacity="0" result="BackgroundImageFix"/>
<feBlend mode="normal" in="SourceGraphic" in2="BackgroundImageFix" result="shape"/>
<feGaussianBlur stdDeviation="300" result="effect1_foregroundBlur_734_16861"/>
<feTurbulence type="fractalNoise" baseFrequency="2.4207315444946289 2.4207315444946289" stitchTiles="stitch" numOctaves="3" result="noise" seed="9558" />
<feColorMatrix in="noise" type="luminanceToAlpha" result="alphaNoise" />
<feComponentTransfer in="alphaNoise" result="coloredNoise1">
<feFuncA type="discrete" tableValues="0 0 0 0 0 0 0 0 0 0 0 0 0 0 1 1 1 1 1 1 1 1 1 1 1 1 1 1 1 1 1 1 1 1 1 0 0 0 0 0 0 0 0 0 0 0 0 0 0 0 0 0 0 0 0 0 0 0 0 0 0 0 0 0 0 0 0 0 0 0 0 0 0 0 0 0 0 0 0 0 0 0 0 0 0 0 0 0 0 0 0 0 0 0 0 0 0 0 0 0 "/>
</feComponentTransfer>
<feComposite operator="in" in2="effect1_foregroundBlur_734_16861" in="coloredNoise1" result="noise1Clipped" />
<feFlood flood-color="#1BB15F" result="color1Flood" />
<feComposite operator="in" in2="noise1Clipped" in="color1Flood" result="color1" />
<feMerge result="effect2_noise_734_16861">
<feMergeNode in="effect1_foregroundBlur_734_16861" />
<feMergeNode in="color1" />
</feMerge>
</filter>
<filter id="filter1_fn_734_16861" x="255" y="-1140" width="2256" height="2256" filterUnits="userSpaceOnUse" color-interpolation-filters="sRGB">
<feFlood flood-opacity="0" result="BackgroundImageFix"/>
<feBlend mode="normal" in="SourceGraphic" in2="BackgroundImageFix" result="shape"/>
<feGaussianBlur stdDeviation="400" result="effect1_foregroundBlur_734_16861"/>
<feTurbulence type="fractalNoise" baseFrequency="2.4207315444946289 2.4207315444946289" stitchTiles="stitch" numOctaves="3" result="noise" seed="9558" />
<feColorMatrix in="noise" type="luminanceToAlpha" result="alphaNoise" />
<feComponentTransfer in="alphaNoise" result="coloredNoise1">
<feFuncA type="discrete" tableValues="0 0 0 0 0 0 0 0 0 0 0 0 0 0 1 1 1 1 1 1 1 1 1 1 1 1 1 1 1 1 1 1 1 1 1 0 0 0 0 0 0 0 0 0 0 0 0 0 0 0 0 0 0 0 0 0 0 0 0 0 0 0 0 0 0 0 0 0 0 0 0 0 0 0 0 0 0 0 0 0 0 0 0 0 0 0 0 0 0 0 0 0 0 0 0 0 0 0 0 0 "/>
</feComponentTransfer>
<feComposite operator="in" in2="effect1_foregroundBlur_734_16861" in="coloredNoise1" result="noise1Clipped" />
<feFlood flood-color="#F8F36A" result="color1Flood" />
<feComposite operator="in" in2="noise1Clipped" in="color1Flood" result="color1" />
<feMerge result="effect2_noise_734_16861">
<feMergeNode in="effect1_foregroundBlur_734_16861" />
<feMergeNode in="color1" />
</feMerge>
</filter>
<filter id="filter2_f_734_16861" x="323.134" y="30.3544" width="861.451" height="852.766" filterUnits="userSpaceOnUse" color-interpolation-filters="sRGB">
<feFlood flood-opacity="0" result="BackgroundImageFix"/>
<feBlend mode="normal" in="SourceGraphic" in2="BackgroundImageFix" result="shape"/>
<feGaussianBlur stdDeviation="28.0054" result="effect1_foregroundBlur_734_16861"/>
</filter>
<filter id="filter3_f_734_16861" x="-119.788" y="-124.122" width="603.78" height="521.627" filterUnits="userSpaceOnUse" color-interpolation-filters="sRGB">
<feFlood flood-opacity="0" result="BackgroundImageFix"/>
<feBlend mode="normal" in="SourceGraphic" in2="BackgroundImageFix" result="shape"/>
<feGaussianBlur stdDeviation="28.0054" result="effect1_foregroundBlur_734_16861"/>
</filter>
<filter id="filter4_f_734_16861" x="911.19" y="-267.673" width="773.489" height="728.258" filterUnits="userSpaceOnUse" color-interpolation-filters="sRGB">
<feFlood flood-opacity="0" result="BackgroundImageFix"/>
<feBlend mode="normal" in="SourceGraphic" in2="BackgroundImageFix" result="shape"/>
<feGaussianBlur stdDeviation="78.357" result="effect1_foregroundBlur_734_16861"/>
</filter>
<filter id="filter5_f_734_16861" x="-257.325" y="359.565" width="789.967" height="753.358" filterUnits="userSpaceOnUse" color-interpolation-filters="sRGB">
<feFlood flood-opacity="0" result="BackgroundImageFix"/>
<feBlend mode="normal" in="SourceGraphic" in2="BackgroundImageFix" result="shape"/>
<feGaussianBlur stdDeviation="78.357" result="effect1_foregroundBlur_734_16861"/>
</filter>
<clipPath id="clip0_734_16861">
<rect width="1280" height="440" rx="40" fill="white"/>
</clipPath>
</defs>
</svg>
