<svg width="34" height="34" viewBox="0 0 34 34" fill="none" xmlns="http://www.w3.org/2000/svg">
<rect width="34" height="34" rx="17" fill="white"/>
<rect x="0.5" y="0.5" width="33" height="33" rx="16.5" stroke="black" stroke-opacity="0.1"/>
<path d="M23.1996 24.0837C21.6291 24.0837 20.0514 23.7185 18.4664 22.9882C16.8816 22.258 15.4241 21.2278 14.0939 19.8978C12.7692 18.5677 11.7417 17.1114 11.0114 15.5291C10.2812 13.9469 9.91602 12.3705 9.91602 10.8001C9.91602 10.5501 9.99935 10.3404 10.166 10.171C10.3327 10.0016 10.541 9.91699 10.791 9.91699H13.5089C13.7193 9.91699 13.905 9.98567 14.0658 10.123C14.2266 10.2603 14.3289 10.4298 14.3727 10.6318L14.8504 13.0837C14.8834 13.3112 14.8765 13.5066 14.8296 13.6701C14.7825 13.8336 14.698 13.9709 14.5762 14.082L12.6516 15.9555C12.9614 16.5228 13.3153 17.0594 13.7133 17.5653C14.1112 18.0712 14.5421 18.5543 15.0058 19.0147C15.463 19.4721 15.9491 19.8968 16.4641 20.2889C16.9791 20.681 17.5353 21.0458 18.1325 21.3835L20.0025 19.4972C20.1329 19.3615 20.2908 19.2664 20.4762 19.2118C20.6615 19.1573 20.8541 19.144 21.0539 19.1718L23.3679 19.643C23.5783 19.6986 23.75 19.806 23.8831 19.9651C24.0162 20.1243 24.0827 20.3048 24.0827 20.5068V23.2087C24.0827 23.4587 23.998 23.667 23.8287 23.8337C23.6593 24.0003 23.4496 24.0837 23.1996 24.0837Z" fill="#1BB15F"/>
</svg>
