<svg xmlns="http://www.w3.org/2000/svg" width="20" height="20" viewBox="0 0 20 20" fill="none">
  <path fill-rule="evenodd" clip-rule="evenodd" d="M8.69861 3.17448C8.2636 2.28079 7.21881 2.11253 6.46745 2.46742L2.88481 4.15962C2.87241 4.16547 2.8602 4.17174 2.84821 4.1784C1.55152 4.89878 1.55036 6.76323 2.84615 7.48523C2.85834 7.49202 2.87076 7.4984 2.88337 7.50436L6.47073 9.19921C7.21934 9.55289 8.26204 9.388 8.69836 8.49686C9.0107 7.85896 9.2014 7.16459 9.27142 6.45754H16.2502C16.5953 6.45754 16.8752 6.17772 16.8752 5.83254C16.8752 5.48736 16.5953 5.20754 16.2502 5.20754H9.27009C9.19885 4.50238 9.00804 3.8102 8.69861 3.17448ZM7.36986 3.55789C7.46763 3.58481 7.53508 3.64021 7.57468 3.72156C8.2094 5.02555 8.21223 6.64718 7.57571 7.94718C7.53631 8.02764 7.46939 8.08248 7.37207 8.10908C7.26827 8.13745 7.1341 8.13014 7.00469 8.069L3.43932 6.38454C3.01983 6.13645 3.0203 5.52709 3.44027 5.27968L7.00131 3.59769C7.13107 3.5364 7.26565 3.5292 7.36986 3.55789Z" fill="#0C0C0C"/>
  <path fill-rule="evenodd" clip-rule="evenodd" d="M13.5296 10.8008C12.7782 10.4459 11.7335 10.6141 11.2984 11.5078C10.989 12.1435 10.7982 12.8357 10.7269 13.5409L3.75008 13.5417C3.40491 13.5417 3.12511 13.8216 3.12515 14.1668C3.12519 14.5119 3.40504 14.7917 3.75022 14.7917L10.7256 14.7909C10.7957 15.498 10.9864 16.1923 11.2987 16.8302C11.735 17.7213 12.7777 17.8862 13.5263 17.5325L17.1137 15.8377C17.1263 15.8317 17.1387 15.8254 17.1509 15.8186C18.4467 15.0966 18.4455 13.2321 17.1488 12.5117C17.1368 12.5051 17.1246 12.4988 17.1122 12.4929L13.5296 10.8008ZM12.4224 12.0549C12.462 11.9735 12.5294 11.9181 12.6272 11.8912C12.7314 11.8625 12.866 11.8697 12.9957 11.931L16.5568 13.613C16.9767 13.8604 16.9772 14.4698 16.5577 14.7179L12.9924 16.4023C12.8629 16.4635 12.7288 16.4708 12.625 16.4424C12.5277 16.4158 12.4607 16.361 12.4213 16.2805C11.7848 14.9805 11.7877 13.3589 12.4224 12.0549Z" fill="#0C0C0C"/>
</svg>