<svg width="20" height="20" viewBox="0 0 20 20" fill="none" xmlns="http://www.w3.org/2000/svg">
<path d="M13.9583 5.83317C13.9583 5.48799 13.6785 5.20817 13.3333 5.20817H8.33333C7.98816 5.20817 7.70833 5.48799 7.70833 5.83317C7.70833 6.17835 7.98816 6.45817 8.33333 6.45817H13.3333C13.6785 6.45817 13.9583 6.17835 13.9583 5.83317Z" fill="white"/>
<path d="M13.3333 8.5415C13.6785 8.5415 13.9583 8.82133 13.9583 9.1665C13.9583 9.51168 13.6785 9.7915 13.3333 9.7915H11.25C10.9048 9.7915 10.625 9.51168 10.625 9.1665C10.625 8.82133 10.9048 8.5415 11.25 8.5415H13.3333Z" fill="white"/>
<path d="M8.16987 9.42351C8.24911 9.46308 8.32053 9.50336 8.3825 9.54209C8.67522 9.72503 8.7642 10.1106 8.58125 10.4033C8.39831 10.696 8.01272 10.785 7.72001 10.6021C7.58604 10.5184 7.34445 10.412 7.10137 10.3827C6.86693 10.3544 6.70889 10.4025 6.59736 10.514C6.50512 10.6063 6.47482 10.6859 6.46394 10.7498C6.45169 10.8218 6.45918 10.908 6.49029 11.0045C6.51809 11.0908 6.62329 11.211 6.92303 11.3613C6.93458 11.3662 6.94604 11.3715 6.95742 11.3772L7.63296 11.715C7.97873 11.8879 8.50529 12.2052 8.69949 12.808C8.85817 13.3006 8.86208 13.9901 8.28652 14.5657C7.90795 14.9443 7.4498 15.0663 7.04049 15.0705L7.0301 15.1224C6.9624 15.4609 6.63314 15.6804 6.29466 15.6127C5.95619 15.545 5.73668 15.2157 5.80437 14.8773L5.8258 14.7702C5.74828 14.7313 5.67834 14.6918 5.6175 14.6537C5.32479 14.4708 5.2358 14.0852 5.41875 13.7925C5.60169 13.4998 5.98728 13.4108 6.27999 13.5937C6.41396 13.6775 6.65555 13.7838 6.89863 13.8131C7.13307 13.8414 7.29111 13.7933 7.40264 13.6818C7.49489 13.5896 7.52518 13.51 7.53606 13.446C7.54831 13.374 7.54082 13.2879 7.50971 13.1913C7.48191 13.105 7.37671 12.9849 7.07697 12.8345C7.06542 12.8296 7.05396 12.8243 7.04258 12.8186L6.36704 12.4808C6.02127 12.308 5.49471 11.9907 5.30051 11.3878C5.14183 10.8953 5.13792 10.2057 5.71348 9.63015C6.09058 9.25305 6.54664 9.13045 6.95474 9.12541L6.97104 9.04393C7.03873 8.70546 7.368 8.48595 7.70647 8.55364C8.04495 8.62134 8.26446 8.9506 8.19676 9.28908L8.16987 9.42351Z" fill="white"/>
<path fill-rule="evenodd" clip-rule="evenodd" d="M1.875 4.58317C1.875 2.62716 3.46066 1.0415 5.41667 1.0415H14.5833C16.5393 1.0415 18.125 2.62716 18.125 4.58317V15.4165C18.125 17.3725 16.5393 18.9582 14.5833 18.9582H5.41667C3.46066 18.9582 1.875 17.3725 1.875 15.4165V4.58317ZM5.41667 2.2915C4.15101 2.2915 3.125 3.31752 3.125 4.58317V15.4165C3.125 16.6822 4.15101 17.7082 5.41667 17.7082H14.5833C15.849 17.7082 16.875 16.6822 16.875 15.4165V4.58317C16.875 3.31752 15.849 2.2915 14.5833 2.2915H5.41667Z" fill="white"/>
</svg>
