<svg width="20" height="20" viewBox="0 0 20 20" fill="none" xmlns="http://www.w3.org/2000/svg">
<path fill-rule="evenodd" clip-rule="evenodd" d="M8.69861 3.17436C8.2636 2.28067 7.21881 2.11241 6.46745 2.4673L2.88481 4.15949C2.87241 4.16535 2.8602 4.17162 2.84821 4.17828C1.55152 4.89866 1.55036 6.76311 2.84615 7.48511C2.85834 7.4919 2.87076 7.49828 2.88337 7.50424L6.47073 9.19909C7.21934 9.55277 8.26204 9.38788 8.69836 8.49674C9.0107 7.85884 9.2014 7.16447 9.27142 6.45742H16.2502C16.5953 6.45742 16.8752 6.1776 16.8752 5.83242C16.8752 5.48724 16.5953 5.20742 16.2502 5.20742H9.27009C9.19885 4.50226 9.00804 3.81008 8.69861 3.17436ZM7.36986 3.55777C7.46763 3.58469 7.53508 3.64009 7.57468 3.72143C8.2094 5.02543 8.21223 6.64706 7.57571 7.94705C7.53631 8.02752 7.46939 8.08235 7.37207 8.10896C7.26827 8.13733 7.1341 8.13002 7.00469 8.06888L3.43932 6.38441C3.01983 6.13633 3.0203 5.52697 3.44027 5.27955L7.00131 3.59757C7.13107 3.53627 7.26565 3.52908 7.36986 3.55777Z" fill="white"/>
<path fill-rule="evenodd" clip-rule="evenodd" d="M13.5296 10.8006C12.7782 10.4457 11.7335 10.614 11.2984 11.5077C10.989 12.1434 10.7982 12.8356 10.7269 13.5408L3.75008 13.5416C3.40491 13.5416 3.12511 13.8215 3.12515 14.1666C3.12519 14.5118 3.40504 14.7916 3.75022 14.7916L10.7256 14.7908C10.7957 15.4978 10.9864 16.1922 11.2987 16.8301C11.735 17.7212 12.7777 17.8861 13.5263 17.5324L17.1137 15.8376C17.1263 15.8316 17.1387 15.8252 17.1509 15.8184C18.4467 15.0964 18.4455 13.232 17.1488 12.5116C17.1368 12.505 17.1246 12.4987 17.1122 12.4928L13.5296 10.8006ZM12.4224 12.0548C12.462 11.9734 12.5294 11.918 12.6272 11.8911C12.7314 11.8624 12.866 11.8696 12.9957 11.9309L16.5568 13.6129C16.9767 13.8603 16.9772 14.4697 16.5577 14.7177L12.9924 16.4022C12.8629 16.4633 12.7288 16.4707 12.625 16.4423C12.5277 16.4157 12.4607 16.3609 12.4213 16.2804C11.7848 14.9804 11.7877 13.3588 12.4224 12.0548Z" fill="white"/>
</svg>
